<svg aria-hidden="true" style="position: absolute; width: 0; height: 0; overflow: hidden;" version="1.1" xmlns="http://www.w3.org/2000/svg" xmlns:xlink="http://www.w3.org/1999/xlink">
<defs>
<symbol id="upload" viewBox="0 0 32 32">
<path d="M13.276 10.98h1.468v7.529h2.511v-7.529h1.468l-2.724-2.722-2.724 2.722z"></path>
<path d="M16 4.706l-8.785 8.785h5.020v7.529h7.529v-7.529h5.020l-8.785-8.785zM17.256 10.98v7.529h-2.511v-7.529h-1.468l2.724-2.722 2.724 2.722h-1.468zM7.215 23.529h17.57v2.509h-17.57v-2.509z"></path>
</symbol>
<symbol id="top-bottom" viewBox="0 0 32 32">
<path d="M16 7.774l4.226 4.226 1.88-1.88-6.106-6.12-6.12 6.12 1.894 1.88 4.226-4.226zM16 24.226l-4.226-4.226-1.88 1.88 6.106 6.12 6.12-6.12-1.894-1.88-4.226 4.226z"></path>
</symbol>
<symbol id="sort" viewBox="0 0 32 32">
<path d="M19.92 6.214l-3.146-3.148-3.148 3.148h6.294zM13.854 23.64h2.452l-5.986-15.28h-2.186l-6 15.28h2.452l1.228-3.266h6.812l1.228 3.266zM6.626 18.186l2.588-6.906 2.586 6.906h-5.174zM16.774 28.934l3.106-3.108h-6.214l3.108 3.108zM28.88 10.054v-1.68h-11.066v2.132h7.84l-7.894 11.414v1.72h11.374v-2.12h-8.16l7.906-11.466z"></path>
</symbol>
<symbol id="search" viewBox="0 0 32 32">
<path d="M20.666 18.666h-1.052l-0.374-0.36c1.301-1.502 2.094-3.476 2.094-5.635 0-0.002 0-0.004 0-0.006v0c-0.001-4.785-3.881-8.664-8.666-8.664s-8.666 3.88-8.666 8.666c0 4.785 3.879 8.665 8.664 8.666h0c2.148 0 4.12-0.788 5.64-2.094l0.36 0.374v1.052l6.668 6.654 1.986-1.986-6.654-6.668zM12.666 18.666c-3.32 0-6-2.68-6-6s2.68-6 6-6 6 2.68 6 6-2.68 6-6 6z"></path>
</symbol>
<symbol id="info" viewBox="0 0 32 32">
<path d="M14.666 22.666h2.668v-8h-2.668v8zM16 2.666c-7.363 0.003-13.331 5.971-13.334 13.334v0c0.003 7.363 5.971 13.331 13.334 13.334h0c7.363-0.003 13.331-5.971 13.334-13.334v-0c-0.003-7.363-5.971-13.331-13.334-13.334h-0zM16 26.666c-5.887-0.008-10.658-4.779-10.666-10.665v-0.001c0.008-5.887 4.779-10.658 10.665-10.666h0.001c5.887 0.008 10.658 4.779 10.666 10.665v0.001c-0.008 5.887-4.779 10.658-10.665 10.666h-0.001zM14.666 12h2.668v-2.666h-2.668v2.666z"></path>
</symbol>
<symbol id="checkmark" viewBox="0 0 32 32">
<path d="M27 4l-15 15-7-7-5 5 12 12 20-20z"></path>
</symbol>
<symbol id="cached" viewBox="0 0 32 32">
<path d="M24.785 10.98l-5.020 5.020h3.765c0 4.154-3.375 7.529-7.529 7.529-0.007 0-0.016 0-0.024 0-1.278 0-2.481-0.326-3.529-0.898l0.038 0.019-1.832 1.833c1.544 0.979 3.375 1.555 5.346 1.555 0.001 0 0.001 0 0.002 0 5.543 0 10.037-4.494 10.037-10.037 0-0.001 0-0.001 0-0.002v0h3.765l-5.018-5.020zM8.471 16c0-4.154 3.375-7.529 7.529-7.529 1.267 0 2.472 0.314 3.514 0.879l1.832-1.833c-1.512-0.975-3.359-1.555-5.341-1.555-0.002 0-0.003 0-0.005 0h0c-0.001 0-0.001 0-0.002 0-5.543 0-10.037 4.494-10.037 10.037 0 0.001 0 0.001 0 0.002v-0h-3.765l5.018 5.020 5.020-5.020h-3.765z"></path>
</symbol>
<symbol id="arrow-right" viewBox="0 0 32 32">
<path d="M8.653 26.84l2.36 2.36 13.2-13.2-13.2-13.2-2.36 2.36 10.84 10.84-10.84 10.84z"></path>
</symbol>
<symbol id="arrow-top" viewBox="0 0 32 32">
<path d="M9.333 18.667l6.667-6.667 6.667 6.667h-13.333z"></path>
</symbol>
<symbol id="arrow-down" viewBox="0 0 32 32">
<path d="M9.333 13.333l6.667 6.667 6.667-6.667h-13.333z"></path>
</symbol>
<symbol id="arrow-left" viewBox="0 0 32 32">
<path d="M23.347 5.16l-2.374-2.36-13.186 13.2 13.2 13.2 2.36-2.36-10.84-10.84 10.84-10.84z"></path>
</symbol>
<symbol id="cross" viewBox="0 0 34 32">
<path d="M26.334 8.546l-1.88-1.88-7.454 7.454-7.454-7.454-1.88 1.88 7.454 7.454-7.454 7.454 1.88 1.88 7.454-7.454 7.454 7.454 1.88-1.88-7.454-7.454 7.454-7.454z"></path>
</symbol>
</defs>
</svg>
